<?xml version="1.0" encoding="utf-8"?>
<svg version="1.1" xmlns:xlink="http://www.w3.org/1999/xlink" width="60px" height="60px" xmlns="http://www.w3.org/2000/svg">
  <g transform="matrix(1 0 0 1 -754 -6687 )">
    <path d="M 44.7707350063775 55.8766219921877  C 58.8339613201531 47.5021660546875  63.4527660267857 29.06428828125  55.2492173533163 14.8488252539063  C 47.045668679847 0.562988613281163  29.0530114859694 -4.2224147460937  15.0587225892857 4.15204119140617  C 1.06443369260202 12.5264971289064  -3.62330843112244 30.8940013476563  4.58024024234695 45.1798379296876  C 12.7837889158163 59.4656745117188  30.7764461096938 64.2510779296875  44.7707350063775 55.8766219921877  Z M 54.6977183035714 15.2006931445313  C 62.6944547831632 29.1346618359375  58.0756500765306 47.0799245507814  44.4260480931123 55.2432597656251  C 30.7764461096938 63.4065949804689  13.1974132461735 58.7619387304687  5.20067670918371 44.7575964257811  C -2.79605982780612 30.7532541210938  1.82274487882651 12.8783650195311  15.4723468622449 4.71502980468733  C 29.1219488456633 -3.44830541015608  46.7009817091837 1.19635083984372  54.6977183035714 15.2006931445313  Z " fill-rule="nonzero" fill="#0093ff" stroke="none" fill-opacity="0.258823529411765" transform="matrix(1 0 0 1 754 6687 )" />
  </g>
</svg>